<?xml version="1.0" encoding="UTF-8" standalone="no"?>
<svg width="89px" height="32px" viewBox="0 0 89 32" version="1.1" xmlns="http://www.w3.org/2000/svg" xmlns:xlink="http://www.w3.org/1999/xlink" xmlns:sketch="http://www.bohemiancoding.com/sketch/ns">
    <!-- Generator: Sketch 3.3.1 (12002) - http://www.bohemiancoding.com/sketch -->
    <title>Group 403</title>
    <desc>Created with Sketch.</desc>
    <defs>
        <path id="path-1" d="M0.3701,31.5344 L0.3701,0.0304 L88.6347,0.0304 L88.6347,31.5344 L0.3701,31.5344"></path>
        <path id="path-3" d="M1.5557,0.5304 C1.1787,0.5304 0.8697,0.8394 0.8697,1.2174 L0.8697,30.3484 C0.8697,30.7254 1.1787,31.0344 1.5557,31.0344 L30.6867,31.0344 C31.0647,31.0344 31.3737,30.7254 31.3737,30.3484 L31.3737,1.2174 C31.3737,0.8394 31.0647,0.5304 30.6867,0.5304 L1.5557,0.5304"></path>
    </defs>
    <g id="Page-1" stroke="none" stroke-width="1" fill="none" fill-rule="evenodd" sketch:type="MSPage">
        <g id="Buklet_PLT_Layout-1" sketch:type="MSLayerGroup" transform="translate(-218.000000, -563.000000)">
            <g id="Group-420" transform="translate(13.000000, 15.000000)">
                <g id="Group-403" transform="translate(205.000000, 548.000000)">
                    <mask id="mask-2" sketch:name="Clip 386" fill="white">
                        <use xlink:href="#path-1"></use>
                    </mask>
                    <g id="Clip-386"></g>
                    <path d="M39.7377,23.9654 L37.2297,23.9654 L37.2297,29.6094 L35.7657,29.6094 L35.7657,23.9654 L34.3017,23.9654 L34.3017,23.1674 L35.7657,23.1674 L35.7657,22.2104 C35.7657,20.7384 36.7547,20.2964 38.8407,20.2964 C39.1507,20.2964 39.4807,20.3214 39.6827,20.3454 L39.6827,21.1434 C39.3347,21.1064 39.1337,21.0944 38.7307,21.0944 C37.6507,21.0944 37.2287,21.4254 37.2287,22.1374 L37.2287,23.1674 L39.7367,23.1674" id="Fill-385" fill="#183924" sketch:type="MSShapeGroup" mask="url(#mask-2)"></path>
                    <path d="M42.2627,29.6094 L40.7987,29.6094 L40.7987,23.1804 L42.2627,23.1804 L42.2627,29.6094 Z M42.2627,21.4744 L40.7987,21.4744 L40.7987,20.4194 L42.2627,20.4194 L42.2627,21.4744 Z" id="Fill-387" fill="#183924" sketch:type="MSShapeGroup" mask="url(#mask-2)"></path>
                    <path d="M46.1237,23.9034 C46.7637,23.1184 47.9357,23.0694 49.1807,23.0694 C51.8527,23.0694 52.8037,23.5844 52.8037,25.4374 L52.8037,29.6084 L51.3397,29.6084 L51.3397,25.2534 C51.3397,24.0634 50.6997,23.8664 49.0337,23.8664 C46.6177,23.8664 46.1237,24.4184 46.1237,25.9404 L46.1237,29.6084 L44.6597,29.6084 L44.6597,23.1794 L46.1237,23.1794" id="Fill-388" fill="#183924" sketch:type="MSShapeGroup" mask="url(#mask-2)"></path>
                    <path d="M60.5257,23.9654 L56.8287,23.9654 L56.8287,27.9034 C56.8287,28.6524 57.0297,28.9104 58.1827,28.9104 C59.3367,28.9104 59.5377,28.6644 59.5377,27.9034 L59.5377,27.3394 L60.9107,27.3394 C60.9107,29.1554 60.6177,29.7074 58.1647,29.7074 C56.0237,29.7074 55.3647,29.2654 55.3647,27.9034 L55.3647,23.9654 L54.1017,23.9654 L54.1017,23.1674 L55.3647,23.1674 L55.3647,21.6214 L56.8287,21.6214 L56.8287,23.1674 L60.5257,23.1674" id="Fill-389" fill="#183924" sketch:type="MSShapeGroup" mask="url(#mask-2)"></path>
                    <path d="M63.7457,23.8184 C64.2947,23.2904 65.1917,23.0204 66.2897,23.0204 C68.2477,23.0204 69.0897,23.6464 69.0897,24.9344 L69.0897,25.3144 L67.6257,25.3144 L67.6257,24.8364 C67.6257,24.0514 67.1317,23.8184 65.9967,23.8184 C64.5137,23.8184 63.7457,24.3214 63.7457,25.3274 L63.7457,29.6094 L62.2817,29.6094 L62.2817,23.1804 L63.7457,23.1804" id="Fill-390" fill="#183924" sketch:type="MSShapeGroup" mask="url(#mask-2)"></path>
                    <path d="M73.7197,26.4434 C72.2557,26.4434 71.5047,26.6274 71.5047,27.5474 C71.5047,28.6514 72.1637,28.9094 73.7377,28.9094 C75.5867,28.9094 76.9047,28.8474 76.9047,27.7064 C76.9047,26.5534 76.2817,26.4434 73.7197,26.4434 M70.3697,24.9214 C70.3697,23.1544 71.9987,23.0574 74.1777,23.0574 C76.8307,23.0574 78.3687,23.3024 78.3687,25.3144 L78.3687,29.6084 L76.9957,29.6084 L77.0507,28.7744 C76.3737,29.5844 75.7507,29.7074 73.8297,29.7074 C71.4687,29.7074 70.0407,29.4124 70.0407,27.6454 C70.0407,25.9894 71.4867,25.6954 73.7017,25.6954 C75.9707,25.6954 76.5017,25.9154 76.9047,26.4434 L76.9047,25.5234 C76.9047,23.9524 76.4827,23.8544 74.1217,23.8544 C72.4197,23.8544 71.8347,23.9764 71.8347,24.7374 L71.8347,24.9214" id="Fill-391" fill="#183924" sketch:type="MSShapeGroup" mask="url(#mask-2)"></path>
                    <path d="M88.6347,27.2534 C88.4697,29.2654 87.4077,29.7074 84.4977,29.7074 C81.3137,29.7074 80.3797,28.9094 80.3797,26.3824 C80.3797,23.8554 81.2947,23.0574 84.4617,23.0574 C86.8957,23.0574 88.4697,23.4254 88.4697,25.0444 L88.4697,25.2534 L87.0607,25.2534 C87.0607,24.2224 86.7127,23.8554 84.4617,23.8554 C82.3207,23.8554 81.8447,24.2354 81.8447,26.3454 C81.8447,28.4554 82.4117,28.9094 84.4977,28.9094 C86.7497,28.9094 87.0977,28.5904 87.2257,27.2534" id="Fill-392" fill="#183924" sketch:type="MSShapeGroup" mask="url(#mask-2)"></path>
                    <path d="M30.6877,31.0344 L1.5567,31.0344 C1.1787,31.0344 0.8697,30.7254 0.8697,30.3484 L0.8697,1.2164 C0.8697,0.8394 1.1787,0.5304 1.5567,0.5304 L30.6877,0.5304 C31.0647,0.5304 31.3737,0.8394 31.3737,1.2164 L31.3737,30.3484 C31.3737,30.7254 31.0647,31.0344 30.6877,31.0344" id="Fill-393" fill="#DAE383" sketch:type="MSShapeGroup" mask="url(#mask-2)"></path>
                    <path d="M30.6877,31.0344 L1.5567,31.0344 C1.1787,31.0344 0.8697,30.7254 0.8697,30.3484 L0.8697,1.2164 C0.8697,0.8394 1.1787,0.5304 1.5567,0.5304 L30.6877,0.5304 C31.0647,0.5304 31.3737,0.8394 31.3737,1.2164 L31.3737,30.3484 C31.3737,30.7254 31.0647,31.0344 30.6877,31.0344 L30.6877,31.0344 Z" id="Stroke-394" stroke="#183924" sketch:type="MSShapeGroup" mask="url(#mask-2)"></path>
                    <g id="Group-402" mask="url(#mask-2)">
                        <mask id="mask-4" sketch:name="Clip 396" fill="white">
                            <use xlink:href="#path-3"></use>
                        </mask>
                        <g id="Clip-396"></g>
                        <path d="M0.8037,7.5754 L9.6787,0.4934 L0.8037,4.2734" id="Fill-395" fill="#183924" sketch:type="MSShapeGroup" mask="url(#mask-4)"></path>
                        <path d="M0.8037,19.0544 L9.6787,0.4944 L0.8037,9.7744" id="Fill-397" fill="#183924" sketch:type="MSShapeGroup" mask="url(#mask-4)"></path>
                        <path d="M31.4397,31.0704 L31.4397,24.6734 L9.6787,0.4934 L21.6347,30.9974" id="Fill-398" fill="#183924" sketch:type="MSShapeGroup" mask="url(#mask-4)"></path>
                        <path d="M31.4397,10.9234 L9.6787,0.4944 L31.4397,18.3364" id="Fill-399" fill="#183924" sketch:type="MSShapeGroup" mask="url(#mask-4)"></path>
                        <path d="M31.4397,5.1844 L9.6787,0.4944 L31.4397,8.9504" id="Fill-400" fill="#183924" sketch:type="MSShapeGroup" mask="url(#mask-4)"></path>
                        <path d="M31.4397,0.4944 L9.6787,0.4944 L31.4397,4.0354" id="Fill-401" fill="#183924" sketch:type="MSShapeGroup" mask="url(#mask-4)"></path>
                    </g>
                </g>
            </g>
        </g>
    </g>
</svg>