<?xml version="1.0" encoding="UTF-8" standalone="no"?>
<svg width="56px" height="44px" viewBox="0 0 66 44" version="1.1" xmlns="http://www.w3.org/2000/svg" xmlns:xlink="http://www.w3.org/1999/xlink" xmlns:sketch="http://www.bohemiancoding.com/sketch/ns">
    <!-- Generator: Sketch 3.3.1 (12002) - http://www.bohemiancoding.com/sketch -->
    <title>Group 418</title>
    <desc>Created with Sketch.</desc>
    <defs>
        <path id="path-1" d="M0.5831,21.68085 L0.5831,0.327 L66.0621,0.327 L66.0621,43.0347 L0.5831,43.0347 L0.5831,21.68085"></path>
    </defs>
    <g id="Page-1" stroke="none" stroke-width="1" fill="none" fill-rule="evenodd" sketch:type="MSPage">
        <g id="Buklet_PLT_Layout-1" sketch:type="MSLayerGroup" transform="translate(-353.000000, -553.000000)">
            <g id="Group-420" transform="translate(13.000000, 15.000000)">
                <g id="Group-418" transform="translate(340.000000, 538.000000)">
                    <mask id="mask-2" sketch:name="Clip 405" fill="white">
                        <use xlink:href="#path-1"></use>
                    </mask>
                    <g id="Clip-405"></g>
                    <path d="M18.0061,18.6047 C18.0061,18.6047 20.2161,29.8547 33.2751,30.7257 C29.5251,19.0067 18.0061,18.6047 18.0061,18.6047" id="Fill-404" fill="#518B32" sketch:type="MSShapeGroup" mask="url(#mask-2)"></path>
                    <path d="M14.8811,20.9487 C14.8811,20.9487 23.1181,18.1977 31.0471,26.5807 C28.7571,24.2157 22.4011,20.1537 16.7401,21.9497 C17.0791,23.9337 20.5641,30.1157 30.5101,31.4837 C18.3601,31.1257 14.8811,20.9487 14.8811,20.9487" id="Fill-406" fill="#C7C7C7" sketch:type="MSShapeGroup" mask="url(#mask-2)"></path>
                    <path d="M40.7271,3.8837 C40.7271,3.8837 29.8781,10.1207 30.2721,23.7487 C31.0831,24.8727 32.8851,27.6687 33.4151,28.5867 C45.0181,18.1147 40.7271,3.8837 40.7271,3.8837" id="Fill-407" fill="#518B32" sketch:type="MSShapeGroup" mask="url(#mask-2)"></path>
                    <path d="M36.6591,0.3267 C36.6591,0.3267 27.3711,6.7287 28.9021,23.1407 C28.5121,18.4527 29.8081,7.7647 36.1041,3.2797 C37.7111,5.4877 40.7531,15.0207 33.9891,27.1087 C43.4991,13.5647 36.6591,0.3267 36.6591,0.3267" id="Fill-408" fill="#C7C7C7" sketch:type="MSShapeGroup" mask="url(#mask-2)"></path>
                    <path d="M4.5841,37.6447 C5.0651,37.6447 5.3161,37.1757 5.1401,36.6027 L4.8991,35.8157 C4.7231,35.2437 4.4371,35.2437 4.2621,35.8187 L4.0231,36.6017 C3.8501,37.1737 4.1021,37.6447 4.5841,37.6447 M6.1711,40.0297 C6.0621,39.6657 5.4811,39.3707 4.8811,39.3707 L4.2611,39.3707 C3.6621,39.3707 3.0851,39.6657 2.9771,40.0297 C2.8711,40.3917 2.2931,40.6887 1.6931,40.6887 L1.3541,40.6887 C0.7551,40.6887 0.4371,40.2287 0.6481,39.6677 L2.8801,33.7247 C3.0921,33.1657 3.7541,32.7087 4.3541,32.7087 L4.8641,32.7087 C5.4641,32.7087 6.1271,33.1657 6.3381,33.7247 L8.5701,39.6677 C8.7811,40.2287 8.4631,40.6887 7.8641,40.6887 L7.4611,40.6887 C6.8611,40.6887 6.2811,40.3917 6.1711,40.0297" id="Fill-409" fill="#EE9A43" sketch:type="MSShapeGroup" mask="url(#mask-2)"></path>
                    <path d="M14.3501,35.7157 C14.3501,36.1587 13.8591,36.5237 13.2581,36.5237 L12.9781,36.5237 C12.3791,36.5237 11.8881,37.0127 11.8881,37.6137 L11.8881,39.5977 C11.8881,40.1967 11.3981,40.6887 10.7991,40.6887 L10.7571,40.6887 C10.1571,40.6887 9.6671,40.1967 9.6671,39.5977 L9.6671,35.9957 C9.6671,35.3967 10.1571,34.9057 10.7571,34.9057 L13.2581,34.9057 C13.8591,34.9057 14.3501,35.2697 14.3501,35.7157" id="Fill-410" fill="#EE9A43" sketch:type="MSShapeGroup" mask="url(#mask-2)"></path>
                    <path d="M17.4841,37.8127 C17.4841,38.2697 17.5811,38.6087 17.7731,38.8317 C17.9651,39.0527 18.2081,39.1627 18.5031,39.1627 C18.7611,39.1627 18.9761,39.0567 19.1511,38.8447 C19.3241,38.6327 19.4111,38.2737 19.4111,37.7647 C19.4111,37.2987 19.3201,36.9527 19.1391,36.7337 C18.9581,36.5127 18.7361,36.4027 18.4751,36.4027 C18.1931,36.4027 17.9571,36.5127 17.7681,36.7357 C17.5791,36.9567 17.4841,37.3157 17.4841,37.8127 M16.3521,42.8867 C15.7541,42.8867 15.2631,42.3967 15.2631,41.7967 L15.2631,35.9957 C15.2631,35.3967 15.7301,34.9057 16.3001,34.9057 C16.8701,34.9057 17.3371,35.0977 17.3371,35.3337 C17.3371,35.5687 17.5851,35.4887 17.8871,35.1587 L18.1271,35.0317 C18.4501,34.8617 18.8071,34.7767 19.1991,34.7767 C19.9731,34.7767 20.5711,35.0707 20.9931,35.6627 C21.4161,36.2547 21.6281,36.9857 21.6281,37.8577 C21.6281,38.8187 21.3971,39.5527 20.9361,40.0587 C20.4751,40.5657 19.8921,40.8187 19.1881,40.8187 C18.8471,40.8187 18.5361,40.7617 18.2551,40.6447 C17.9731,40.5287 17.7221,40.3557 17.5011,40.1267 L17.5011,41.7967 C17.5011,42.3967 17.0111,42.8867 16.4111,42.8867" id="Fill-411" fill="#EE9A43" sketch:type="MSShapeGroup" mask="url(#mask-2)"></path>
                    <path d="M24.6381,37.8077 C24.6381,38.3237 24.7441,38.7037 24.9501,38.9507 C25.1601,39.1967 25.4231,39.3217 25.7381,39.3217 C26.0581,39.3217 26.3201,39.1987 26.5251,38.9567 C26.7311,38.7127 26.8321,38.3237 26.8321,37.7867 C26.8321,37.2837 26.7301,36.9117 26.5221,36.6667 C26.3161,36.4217 26.0591,36.2987 25.7551,36.2987 C25.4311,36.2987 25.1651,36.4237 24.9541,36.6717 C24.7441,36.9207 24.6381,37.2987 24.6381,37.8077 M22.4171,37.8127 C22.4171,36.9317 22.7151,36.2047 23.3101,35.6327 C23.9051,35.0617 24.7091,34.7757 25.7221,34.7757 C26.8791,34.7757 27.7551,35.1097 28.3461,35.7817 C28.8211,36.3217 29.0591,36.9877 29.0591,37.7807 C29.0591,38.6687 28.7651,39.3987 28.1741,39.9657 C27.5851,40.5337 26.7691,40.8187 25.7271,40.8187 C24.7981,40.8187 24.0471,40.5837 23.4741,40.1107 C22.7691,39.5257 22.4171,38.7597 22.4171,37.8127" id="Fill-412" fill="#EE9A43" sketch:type="MSShapeGroup" mask="url(#mask-2)"></path>
                    <path d="M33.1701,39.3057 C33.5261,39.3057 33.7991,39.1737 33.9891,38.9117 C34.1801,38.6527 34.2741,38.2767 34.2741,37.7887 C34.2741,37.3047 34.1771,36.9347 33.9811,36.6777 C33.7841,36.4177 33.5221,36.2897 33.1911,36.2897 C32.8241,36.2897 32.5471,36.4307 32.3581,36.7137 C32.1691,36.9927 32.0751,37.3597 32.0751,37.8117 C32.0751,38.2807 32.1691,38.6487 32.3561,38.9097 C32.5421,39.1737 32.8141,39.3057 33.1701,39.3057 M32.0651,35.0747 C32.3291,34.8747 32.6941,34.7767 33.1581,34.7767 C34.2441,34.7767 35.0711,35.0627 35.6381,35.6337 C36.2061,36.2067 36.4911,36.9207 36.4911,37.7737 C36.4911,38.6197 36.2081,39.3407 35.6431,39.9327 C35.0791,40.5277 34.2511,40.8237 33.1581,40.8237 C32.0701,40.8237 31.2481,40.5257 30.6931,39.9277 C30.1371,39.3307 29.8591,38.3577 29.8591,37.0087 C29.8591,35.7597 30.0991,34.7507 30.5781,33.9797 C31.0581,33.2107 31.7461,32.8117 32.6471,32.7847 C33.0151,32.7707 33.7351,32.7147 34.2461,32.6577 L34.3071,32.5287 L34.9761,32.5287 C35.5761,32.5287 35.8961,32.9857 35.6881,33.5487 C35.6881,33.5487 35.4721,34.1337 34.2861,34.1777 C33.4841,34.2057 32.9391,34.2837 32.6521,34.4117 C32.3671,34.5397 32.1691,34.7617 32.0651,35.0747" id="Fill-413" fill="#EE9A43" sketch:type="MSShapeGroup" mask="url(#mask-2)"></path>
                    <path d="M39.5121,37.8077 C39.5121,38.3237 39.6181,38.7037 39.8251,38.9507 C40.0341,39.1967 40.2951,39.3217 40.6121,39.3217 C40.9311,39.3217 41.1941,39.1987 41.3991,38.9567 C41.6041,38.7127 41.7061,38.3237 41.7061,37.7867 C41.7061,37.2837 41.6021,36.9117 41.3961,36.6667 C41.1891,36.4217 40.9341,36.2987 40.6281,36.2987 C40.3051,36.2987 40.0381,36.4237 39.8281,36.6717 C39.6181,36.9207 39.5121,37.2987 39.5121,37.8077 M37.2911,37.8127 C37.2911,36.9317 37.5881,36.2047 38.1831,35.6327 C38.7781,35.0617 39.5831,34.7757 40.5951,34.7757 C41.7531,34.7757 42.6291,35.1097 43.2201,35.7817 C43.6961,36.3217 43.9331,36.9877 43.9331,37.7807 C43.9331,38.6687 43.6381,39.3987 43.0481,39.9657 C42.4581,40.5337 41.6431,40.8187 40.6011,40.8187 C39.6721,40.8187 38.9211,40.5837 38.3471,40.1107 C37.6431,39.5257 37.2911,38.7597 37.2911,37.8127" id="Fill-414" fill="#EE9A43" sketch:type="MSShapeGroup" mask="url(#mask-2)"></path>
                    <path d="M51.5321,39.5977 C51.5321,40.1967 51.0421,40.6887 50.4421,40.6887 L50.4001,40.6887 C49.8011,40.6887 49.3111,40.1967 49.3111,39.5977 L49.3111,39.5937 C49.3111,38.9937 48.8571,38.5037 48.3031,38.5037 C47.7501,38.5037 47.2971,38.9937 47.2971,39.5937 L47.2971,39.5977 C47.2971,40.1967 46.8061,40.6887 46.2061,40.6887 L46.1651,40.6887 C45.5661,40.6887 45.0751,40.1967 45.0751,39.5977 L45.0751,35.9957 C45.0751,35.3967 45.5661,34.9057 46.1651,34.9057 L46.2061,34.9057 C46.8061,34.9057 47.2971,35.3527 47.2971,35.8977 C47.2971,36.4427 47.7501,36.8877 48.3031,36.8877 C48.8571,36.8877 49.3111,36.4427 49.3111,35.8977 C49.3111,35.3527 49.8011,34.9057 50.4001,34.9057 L50.4421,34.9057 C51.0421,34.9057 51.5321,35.3967 51.5321,35.9957" id="Fill-415" fill="#EE9A43" sketch:type="MSShapeGroup" mask="url(#mask-2)"></path>
                    <path d="M52.7321,35.9107 C52.5001,35.3587 52.8021,34.9067 53.4001,34.9067 L53.5591,34.9067 C54.1591,34.9067 54.7941,35.3747 54.9711,35.9467 L55.5181,37.7137 C55.6971,38.2857 55.9781,38.2837 56.1441,37.7087 L56.6481,35.9537 C56.8141,35.3767 57.4401,34.9067 58.0391,34.9067 L58.0431,34.9067 C58.6431,34.9067 58.9621,35.3657 58.7531,35.9277 L57.2191,40.0627 C57.0101,40.6247 56.6381,41.5307 56.3941,42.0787 C56.3941,42.0787 56.3111,42.2657 56.0391,42.5127 C55.6541,42.8607 55.0681,43.0347 54.2821,43.0347 C53.9621,43.0347 53.4681,42.9917 52.8011,42.9037 L52.7491,42.4417 C52.6811,41.8457 52.9301,41.4257 53.3011,41.5117 L53.6931,41.5117 C53.9541,41.5117 54.1651,41.4507 54.3271,41.3307 C54.4871,41.2097 54.6241,40.9967 54.7371,40.6887" id="Fill-416" fill="#EE9A43" sketch:type="MSShapeGroup" mask="url(#mask-2)"></path>
                    <path d="M64.0691,38.4247 L65.0941,38.5407 C65.6901,38.6077 66.0391,39.0317 65.8701,39.4837 L65.6051,39.8037 C65.3401,40.1247 65.0031,40.3747 64.5901,40.5507 C64.1781,40.7297 63.6551,40.8187 63.0201,40.8187 C62.4061,40.8187 61.8951,40.7617 61.4871,40.6487 C61.0781,40.5337 60.7271,40.3477 60.4331,40.0917 C60.1391,39.8367 59.9091,39.5377 59.7431,39.1917 C59.5751,38.8477 59.4921,38.3907 59.4921,37.8217 C59.4921,37.2267 59.5931,36.7327 59.7961,36.3367 C59.9451,36.0457 60.1491,35.7867 60.4061,35.5557 C60.6631,35.3257 60.9291,35.1537 61.2011,35.0437 C61.6331,34.8637 62.1871,34.7767 62.8611,34.7767 C63.8051,34.7767 64.5251,34.9447 65.0201,35.2827 C65.5151,35.6197 65.8631,36.1147 66.0621,36.7617 L65.0581,36.8977 C64.4641,36.9767 63.8941,36.8467 63.7941,36.6087 L63.6221,36.4827 C63.4491,36.3577 63.2171,36.2957 62.9271,36.2957 C62.5601,36.2957 62.2631,36.4257 62.0361,36.6887 C61.8101,36.9517 61.6961,37.3487 61.6961,37.8827 C61.6961,38.3557 61.8091,38.7167 62.0341,38.9637 C62.2601,39.2097 62.5451,39.3327 62.8951,39.3327 C63.1851,39.3327 63.4291,39.2577 63.6271,39.1087 C63.8251,38.9617 63.9731,38.7317 64.0691,38.4247" id="Fill-417" fill="#EE9A43" sketch:type="MSShapeGroup" mask="url(#mask-2)"></path>
                </g>
            </g>
        </g>
    </g>
</svg>
