<?xml version="1.0" encoding="UTF-8" standalone="no"?>
<svg width="302px" height="193px" viewBox="0 0 302 193" version="1.1" xmlns="http://www.w3.org/2000/svg" xmlns:xlink="http://www.w3.org/1999/xlink" xmlns:sketch="http://www.bohemiancoding.com/sketch/ns">
    <!-- Generator: Sketch 3.3.1 (12002) - http://www.bohemiancoding.com/sketch -->
    <title>Group 384</title>
    <desc>Created with Sketch.</desc>
    <defs>
        <path id="path-1" d="M5.55212766,192.602655 L306.858911,192.602655 L306.858911,0.602895745 L5.55212766,0.602895745 L5.55212766,192.602655 L5.55212766,192.602655 Z"></path>
    </defs>
    <g id="Page-1" stroke="none" stroke-width="1" fill="none" fill-rule="evenodd" sketch:type="MSPage">
        <g id="Group-384" sketch:type="MSLayerGroup" transform="translate(-5.000000, 0.000000)">
            <mask id="mask-2" sketch:name="Clip 367" fill="white">
                <use xlink:href="#path-1"></use>
            </mask>
            <g id="Clip-367"></g>
            <path d="M6.8846383,165.139219 L6.8846383,177.90454 L12.221866,177.90454 C14.9672298,177.90454 17.0940213,177.90454 18.7603128,177.168394 C20.7336043,176.319898 21.9707489,174.075532 21.9707489,171.253091 C21.9707489,168.92773 21.0046787,167.148436 19.1443894,166.14644 C17.4826702,165.215643 15.2788021,165.139219 12.2623638,165.139219 L6.8846383,165.139219 Z M23.3254681,171.366094 C23.3254681,173.650957 22.5893213,175.543253 21.2346021,176.93847 C19.3383872,178.794187 16.8634447,179.065262 13.1115128,179.065262 L6.8846383,179.065262 L6.8846383,192.060506 L5.57041702,192.060506 L5.57041702,163.942572 L13.228434,163.942572 C19.9974574,163.942572 23.3254681,166.222864 23.3254681,171.366094 L23.3254681,171.366094 Z" id="Fill-366" fill="#000000" sketch:type="MSShapeGroup" mask="url(#mask-2)"></path>
            <path d="M27.5294085,171.754089 L28.7665532,171.754089 L28.7665532,175.3891 C29.8142723,172.720813 31.8639872,171.330168 34.8399277,171.330168 L34.8399277,172.567313 C30.1212723,172.761311 28.7665532,175.777749 28.7665532,182.198621 L28.7665532,192.060506 L27.5294085,192.060506" id="Fill-368" fill="#000000" sketch:type="MSShapeGroup" mask="url(#mask-2)"></path>
            <path d="M37.9334426,171.754089 L39.1705872,171.754089 L39.1705872,192.060506 L37.9334426,192.060506 L37.9334426,171.754089 Z M37.9334426,163.938 L39.1705872,163.938 L39.1705872,167.225513 L37.9334426,167.225513 L37.9334426,163.938 Z" id="Fill-369" fill="#000000" sketch:type="MSShapeGroup" mask="url(#mask-2)"></path>
            <path d="M44.6613149,171.754089 L45.8984596,171.754089 L45.8984596,175.0821 C47.1761021,172.684887 49.3799702,171.289017 52.2429085,171.289017 C55.3762681,171.289017 57.5030596,172.838387 58.2392064,175.466177 C59.5939255,172.761311 61.874217,171.289017 64.8547298,171.289017 C69.0678149,171.289017 71.2351043,173.76396 71.2351043,178.600189 L71.2351043,192.060506 L69.9979596,192.060506 L69.9979596,179.877832 C69.9979596,177.940466 69.9568085,176.396321 69.4153128,175.0821 C68.7196638,173.45696 67.0174468,172.40924 64.8142319,172.40924 C62.8409404,172.40924 61.1792213,173.185885 60.0949234,174.500106 C58.6278553,176.278747 58.5462064,178.329115 58.5462064,181.114977 L58.5462064,192.060506 L57.3495596,192.060506 L57.3495596,179.877832 C57.3495596,177.940466 57.3090617,176.396321 56.767566,175.0821 C56.071917,173.45696 54.3697,172.40924 52.1658319,172.40924 C50.1925404,172.40924 48.5308213,173.185885 47.4066787,174.500106 C45.9755362,176.278747 45.8984596,178.329115 45.8984596,181.114977 L45.8984596,192.060506 L44.6613149,192.060506" id="Fill-370" fill="#000000" sketch:type="MSShapeGroup" mask="url(#mask-2)"></path>
            <path d="M91.3383787,180.880481 C91.3383787,175.583751 88.3983638,172.40924 84.3753574,172.40924 C80.1217745,172.40924 77.1817596,175.543253 76.8701872,180.880481 L91.3383787,180.880481 Z M84.1447809,192.562157 C78.9610532,192.562157 75.5566191,188.578996 75.5566191,181.923628 C75.5566191,175.272179 78.9610532,171.289017 84.1447809,171.289017 C89.3650872,171.289017 92.6519468,174.924028 92.6519468,181.268477 L92.6519468,182.004623 L76.8342617,182.004623 L76.8342617,182.311623 C76.8342617,187.960423 79.9271234,191.441934 84.1447809,191.441934 C87.4682191,191.441934 90.1371596,189.428145 91.0673043,186.064209 L92.2685234,186.064209 C91.3788766,190.010791 88.1684404,192.562157 84.1447809,192.562157 L84.1447809,192.562157 Z" id="Fill-371" fill="#000000" sketch:type="MSShapeGroup" mask="url(#mask-2)"></path>
            <path d="M107.688415,163.938 L109.002636,163.938 L109.002636,190.782864 L123.894749,190.782864 L123.894749,192.060506 L107.688415,192.060506" id="Fill-372" fill="#000000" sketch:type="MSShapeGroup" mask="url(#mask-2)"></path>
            <path d="M134.641709,181.615974 C129.457981,182.275698 126.94254,183.395268 126.94254,186.605704 C126.94254,189.586217 128.762332,191.283862 132.049845,191.283862 C134.334709,191.283862 136.421002,190.511789 137.852145,189.315143 C139.59094,187.802351 139.862015,186.140632 139.862015,183.395268 L139.862015,180.415409 C139.324438,181.150902 137.581723,181.268477 134.641709,181.615974 M142.530302,192.250585 C140.63866,192.250585 139.862015,191.094436 139.862015,188.579649 C138.276719,191.053938 135.377855,192.525579 131.702347,192.525579 C128.067336,192.525579 125.66947,190.200217 125.66947,186.800355 C125.66947,182.970694 128.261334,181.462474 133.752062,180.68583 C137.893296,180.107755 139.862015,180.338332 139.862015,178.329115 L139.862015,176.626898 C139.862015,173.876962 137.969719,172.372662 134.411785,172.372662 C130.311702,172.373315 127.909264,174.229032 127.719838,177.39897 L126.559117,177.39897 C126.712617,173.646385 129.616053,171.248519 134.294211,171.248519 C137.157149,171.248519 139.166366,172.061743 140.214085,173.61046 C141.062581,174.770528 141.103732,176.125247 141.103732,177.786966 L141.103732,187.648851 C141.103732,190.164291 141.333655,191.17086 142.882372,191.17086 C143.112949,191.17086 143.343526,191.130362 143.613947,191.094436 L143.613947,192.137583 C143.153447,192.178081 142.801377,192.250585 142.530302,192.250585" id="Fill-373" fill="#000000" sketch:type="MSShapeGroup" mask="url(#mask-2)"></path>
            <path d="M155.720198,191.478513 C160.36243,191.478513 163.419366,187.956504 163.419366,181.964126 C163.419366,175.926677 160.36243,172.40924 155.720198,172.40924 C151.078619,172.40924 148.062181,175.926677 148.062181,181.964126 C148.062181,187.956504 151.078619,191.478513 155.720198,191.478513 M146.825036,163.973926 L148.062181,163.973926 L148.062181,176.391749 C149.452826,173.063738 152.085187,171.289017 155.720198,171.289017 C161.175,171.289017 164.656511,175.308104 164.656511,181.964126 C164.656511,188.656072 161.175,192.602655 155.720198,192.602655 C152.125685,192.602655 149.610898,190.976862 148.062181,187.725928 L148.062181,192.060506 L146.825036,192.060506" id="Fill-374" fill="#000000" sketch:type="MSShapeGroup" mask="url(#mask-2)"></path>
            <path d="M185.99693,165.175145 L177.101115,165.175145 L177.101115,163.938 L196.052813,163.938 L196.052813,165.175145 L187.310498,165.175145 L187.310498,192.060506 L185.99693,192.060506" id="Fill-375" fill="#000000" sketch:type="MSShapeGroup" mask="url(#mask-2)"></path>
            <path d="M208.813562,180.880481 C208.813562,175.583751 205.8742,172.40924 201.85054,172.40924 C197.592385,172.40924 194.653023,175.543253 194.350596,180.880481 L208.813562,180.880481 Z M201.616045,192.562157 C196.436889,192.562157 193.031802,188.578996 193.031802,181.923628 C193.031802,175.272179 196.436889,171.289017 201.616045,171.289017 C206.84027,171.289017 210.132355,174.924028 210.132355,181.268477 L210.132355,182.004623 L194.310098,182.004623 L194.310098,182.311623 C194.310098,187.960423 197.40296,191.441934 201.616045,191.441934 C204.944055,191.441934 207.612343,189.428145 208.542487,186.064209 L209.743706,186.064209 C208.85406,190.010791 205.639051,192.562157 201.616045,192.562157 L201.616045,192.562157 Z" id="Fill-376" fill="#000000" sketch:type="MSShapeGroup" mask="url(#mask-2)"></path>
            <path d="M222.305885,192.562157 C217.045081,192.562157 213.523072,188.578996 213.523072,181.923628 C213.523072,175.272179 216.964085,171.289017 222.42346,171.289017 C226.712968,171.289017 229.575906,173.686883 230.118055,177.670045 L228.880911,177.670045 C228.338762,174.418457 225.823321,172.40924 222.42346,172.40924 C217.776655,172.40924 214.76087,175.890751 214.76087,181.923628 C214.76087,187.956504 217.776655,191.437362 222.42346,191.437362 C225.940896,191.437362 228.68626,189.121145 229.151332,185.481562 L230.312053,185.481562 C229.846981,189.852719 226.753466,192.562157 222.305885,192.562157" id="Fill-377" fill="#000000" sketch:type="MSShapeGroup" mask="url(#mask-2)"></path>
            <path d="M234.796213,163.938 L236.028785,163.938 L236.028785,175.078181 C237.306428,172.680315 239.668368,171.289017 242.878804,171.289017 C247.561534,171.289017 249.841826,173.723462 249.841826,178.595617 L249.841826,192.060506 L248.604681,192.060506 L248.604681,178.983613 C248.604681,174.495534 247.014813,172.40924 242.91473,172.40924 C240.674936,172.40924 238.891723,173.145387 237.695077,174.495534 C236.109781,176.278747 236.028785,178.36504 236.028785,181.192053 L236.028785,192.060506 L234.796213,192.060506" id="Fill-378" fill="#000000" sketch:type="MSShapeGroup" mask="url(#mask-2)"></path>
            <path d="M22.209817,80.4235489 L62.1498638,80.4235489 C89.0397979,80.4235489 100.278611,75.4070383 100.278611,48.5125319 C100.278611,27.0414745 96.4633191,18.2090191 74.7930383,18.2090191 L22.209817,18.2090191 L22.209817,80.4235489 Z M22.209817,153.877545 L5.55212766,153.877545 L5.55212766,3.56054681 L77.2000489,3.56054681 C106.29777,3.56054681 116.9363,16.4029447 116.9363,46.3047447 C116.9363,82.8305596 105.295774,95.0765936 66.9632319,95.0765936 L22.209817,95.0765936 L22.209817,153.877545 Z" id="Fill-379" fill="#006BA8" sketch:type="MSShapeGroup" mask="url(#mask-2)"></path>
            <path d="M144.824311,139.2245 L220.887806,139.2245 L220.887806,153.877545 L128.166621,153.877545 L128.166621,3.56054681 L144.824311,3.56054681" id="Fill-380" fill="#006BA8" sketch:type="MSShapeGroup" mask="url(#mask-2)"></path>
            <path d="M249.760177,3.56054681 L184.520064,3.56054681 L184.520064,18.2135915 L233.084851,18.2135915 L233.084851,153.877545 L249.74254,153.877545 L249.74254,18.2135915 L249.760177,18.2135915" id="Fill-381" fill="#006BA8" sketch:type="MSShapeGroup" mask="url(#mask-2)"></path>
            <path d="M277.296117,11.6568553 C277.296117,17.761583 272.346885,22.7062426 266.24673,22.7062426 C260.141349,22.7062426 255.19277,17.761583 255.19277,11.6568553 C255.19277,5.55212766 260.141349,0.607468085 266.24673,0.607468085 C272.346885,0.607468085 277.296117,5.55212766 277.296117,11.6568553" id="Fill-382" fill="#006BA8" sketch:type="MSShapeGroup" mask="url(#mask-2)"></path>
            <path d="M306.858911,11.6568553 C306.858911,17.761583 301.909679,22.7062426 295.809523,22.7062426 C289.704796,22.7062426 284.755564,17.761583 284.755564,11.6568553 C284.755564,5.55212766 289.704796,0.607468085 295.809523,0.607468085 C301.909679,0.607468085 306.858911,5.55212766 306.858911,11.6568553" id="Fill-383" fill="#006BA8" sketch:type="MSShapeGroup" mask="url(#mask-2)"></path>
        </g>
    </g>
</svg>