<?xml version="1.0" encoding="UTF-8" standalone="no"?>
<svg width="302px" height="154px" viewBox="0 0 302 154" version="1.1" xmlns="http://www.w3.org/2000/svg" xmlns:xlink="http://www.w3.org/1999/xlink" xmlns:sketch="http://www.bohemiancoding.com/sketch/ns">
    <!-- Generator: Sketch 3.3.1 (12002) - http://www.bohemiancoding.com/sketch -->
    <title>Group 384</title>
    <desc>Created with Sketch.</desc>
    <defs>
        <path id="path-1" d="M0.55212766,192.602655 L301.858911,192.602655 L301.858911,0.602895745 L0.55212766,0.602895745 L0.55212766,192.602655 L0.55212766,192.602655 Z"></path>
    </defs>
    <g id="Page-1" stroke="none" stroke-width="1" fill="none" fill-rule="evenodd" sketch:type="MSPage">
        <g id="Group-384" sketch:type="MSLayerGroup">
            <mask id="mask-2" sketch:name="Clip 367" fill="white">
                <use xlink:href="#path-1"></use>
            </mask>
            <g id="Clip-367"></g>
            <path d="M17.209817,80.4235489 L57.1498638,80.4235489 C84.0397979,80.4235489 95.2786106,75.4070383 95.2786106,48.5125319 C95.2786106,27.0414745 91.4633191,18.2090191 69.7930383,18.2090191 L17.209817,18.2090191 L17.209817,80.4235489 Z M17.209817,153.877545 L0.55212766,153.877545 L0.55212766,3.56054681 L72.2000489,3.56054681 C101.29777,3.56054681 111.9363,16.4029447 111.9363,46.3047447 C111.9363,82.8305596 100.295774,95.0765936 61.9632319,95.0765936 L17.209817,95.0765936 L17.209817,153.877545 Z" id="Fill-379" fill="#FFFFFF" sketch:type="MSShapeGroup" mask="url(#mask-2)"></path>
            <path d="M139.824311,139.2245 L215.887806,139.2245 L215.887806,153.877545 L123.166621,153.877545 L123.166621,3.56054681 L139.824311,3.56054681" id="Fill-380" fill="#FFFFFF" sketch:type="MSShapeGroup" mask="url(#mask-2)"></path>
            <path d="M244.760177,3.56054681 L179.520064,3.56054681 L179.520064,18.2135915 L228.084851,18.2135915 L228.084851,153.877545 L244.74254,153.877545 L244.74254,18.2135915 L244.760177,18.2135915" id="Fill-381" fill="#FFFFFF" sketch:type="MSShapeGroup" mask="url(#mask-2)"></path>
            <path d="M272.296117,11.6568553 C272.296117,17.761583 267.346885,22.7062426 261.24673,22.7062426 C255.141349,22.7062426 250.19277,17.761583 250.19277,11.6568553 C250.19277,5.55212766 255.141349,0.607468085 261.24673,0.607468085 C267.346885,0.607468085 272.296117,5.55212766 272.296117,11.6568553" id="Fill-382" fill="#FFFFFF" sketch:type="MSShapeGroup" mask="url(#mask-2)"></path>
            <path d="M301.858911,11.6568553 C301.858911,17.761583 296.909679,22.7062426 290.809523,22.7062426 C284.704796,22.7062426 279.755564,17.761583 279.755564,11.6568553 C279.755564,5.55212766 284.704796,0.607468085 290.809523,0.607468085 C296.909679,0.607468085 301.858911,5.55212766 301.858911,11.6568553" id="Fill-383" fill="#FFFFFF" sketch:type="MSShapeGroup" mask="url(#mask-2)"></path>
        </g>
    </g>
</svg>